<svg xmlns="http://www.w3.org/2000/svg" viewBox="0 0 12.47 20" width="12.47" height="20"><defs><path id="b" d="M1.15 17.51 2.62 15.24Q3.93 16.63 5.47 16.63Q8.27 16.63 8.27 14Q8.27 12.8 7.46 12.05Q6.64 11.3 5.26 11.3H4.74V8.88H5.18Q7.72 8.88 7.72 6.76Q7.72 4.55 5.35 4.55Q4.13 4.55 2.98 5.7L1.6 3.68Q2.13 3.02 3.26 2.54Q4.39 2.05 5.52 2.05Q8 2.05 9.38 3.18Q10.77 4.31 10.77 6.35Q10.77 8.76 8.69 10.03Q11.32 11.3 11.32 14.17Q11.32 16.53 9.75 17.83Q8.19 19.13 5.43 19.13Q2.92 19.13 1.15 17.51Z"/><filter id="e" x="-.2" y="-.2" width="1.4" height="1.4" color-interpolation-filters="sRGB"><feGaussianBlur in="SourceAlpha" stdDeviation="0.8" result="h"/><feOffset in="h" dx="0" dy="0.8" result="d"/><feComposite in="h" in2="d" operator="arithmetic" k2="3" k3="-3"/><feComponentTransfer result="l"><feFuncA type="gamma" exponent="1.5"/></feComponentTransfer><feComposite in="d" in2="h" operator="arithmetic" k2="2" k3="-2" result="s"/><feFlood flood-color="#d4d4d4"/><feComposite in2="l" operator="in" result="lc"/><feFlood flood-color="#ff5400"/><feComposite in2="s" operator="in" result="sc"/><feComposite in="SourceGraphic" in2="lc" operator="arithmetic" k2="1" k3="1"/><feComposite in="sc" operator="over"/><feComposite in2="SourceAlpha" operator="in"/></filter></defs><use href="#b" fill="#fb7333" stroke="#fb7333" stroke-width="2.3" stroke-linejoin="round"/><use href="#b" fill="#ffc600" stroke="#ffc600" stroke-width="0.3" stroke-linejoin="round" filter="url(#e)"/></svg>
