<svg xmlns="http://www.w3.org/2000/svg" viewBox="0 0 13.8 20" width="13.8" height="20"><defs><path id="b" d="M8.85 2.02 10.41 3.67Q8.72 4.55 7.34 5.98Q5.96 7.42 5.45 8.82Q6.62 8.29 7.48 8.29Q9.82 8.29 11.24 9.74Q12.65 11.19 12.65 13.67Q12.65 16.11 11.2 17.62Q9.75 19.13 7.54 19.13Q1.75 19.13 1.75 11.91Q1.75 8.88 3.98 5.78Q6.21 2.67 8.85 2.02ZM4.8 13.61Q4.8 16.63 7.37 16.63Q8.42 16.63 9.04 15.88Q9.66 15.13 9.66 13.78Q9.66 12.4 9.01 11.59Q8.36 10.79 7.33 10.79Q4.8 10.79 4.8 13.61Z"/><filter id="e" x="-.2" y="-.2" width="1.4" height="1.4" color-interpolation-filters="sRGB"><feGaussianBlur in="SourceAlpha" stdDeviation="0.8" result="h"/><feOffset in="h" dx="0" dy="0.8" result="d"/><feComposite in="h" in2="d" operator="arithmetic" k2="3" k3="-3"/><feComponentTransfer result="l"><feFuncA type="gamma" exponent="1.5"/></feComponentTransfer><feComposite in="d" in2="h" operator="arithmetic" k2="2" k3="-2" result="s"/><feFlood flood-color="#d4d4d4"/><feComposite in2="l" operator="in" result="lc"/><feFlood flood-color="#ff5400"/><feComposite in2="s" operator="in" result="sc"/><feComposite in="SourceGraphic" in2="lc" operator="arithmetic" k2="1" k3="1"/><feComposite in="sc" operator="over"/><feComposite in2="SourceAlpha" operator="in"/></filter></defs><use href="#b" fill="#fb7333" stroke="#fb7333" stroke-width="2.3" stroke-linejoin="round"/><use href="#b" fill="#ffc600" stroke="#ffc600" stroke-width="0.3" stroke-linejoin="round" filter="url(#e)"/></svg>
