<svg xmlns="http://www.w3.org/2000/svg" viewBox="0 0 13.76 20" width="13.76" height="20"><defs><path id="b" d="M4.41 9.84Q3.5 9.23 2.93 8.22Q2.35 7.22 2.35 6.21Q2.35 4.3 3.7 3.18Q5.05 2.05 7.16 2.05Q9.43 2.05 10.71 3.18Q11.99 4.3 11.99 6.22Q11.99 7.23 11.28 8.35Q10.56 9.48 9.72 9.93Q10.79 10.42 11.7 11.72Q12.61 13.02 12.61 14.17Q12.61 16.52 11.13 17.82Q9.65 19.13 7.11 19.13Q4.54 19.13 3.15 17.85Q1.75 16.57 1.75 14.17Q1.75 12.92 2.49 11.72Q3.23 10.53 4.41 9.84ZM7.43 8.71Q8.07 8.41 8.55 7.62Q9.04 6.82 9.04 6.18Q9.04 5.43 8.52 4.99Q8.01 4.55 7.16 4.55Q5.29 4.55 5.29 6.19Q5.29 6.91 5.98 7.66Q6.67 8.41 7.43 8.71ZM6.85 11.02Q4.69 12.24 4.69 14.17Q4.69 15.23 5.36 15.93Q6.03 16.63 7.11 16.63Q8.24 16.63 8.95 16.01Q9.67 15.4 9.67 14.39Q9.67 12.67 6.85 11.02Z"/><filter id="e" x="-.2" y="-.2" width="1.4" height="1.4" color-interpolation-filters="sRGB"><feGaussianBlur in="SourceAlpha" stdDeviation="0.8" result="h"/><feOffset in="h" dx="0" dy="0.8" result="d"/><feComposite in="h" in2="d" operator="arithmetic" k2="3" k3="-3"/><feComponentTransfer result="l"><feFuncA type="gamma" exponent="1.5"/></feComponentTransfer><feComposite in="d" in2="h" operator="arithmetic" k2="2" k3="-2" result="s"/><feFlood flood-color="#d4d4d4"/><feComposite in2="l" operator="in" result="lc"/><feFlood flood-color="#ff5400"/><feComposite in2="s" operator="in" result="sc"/><feComposite in="SourceGraphic" in2="lc" operator="arithmetic" k2="1" k3="1"/><feComposite in="sc" operator="over"/><feComposite in2="SourceAlpha" operator="in"/></filter></defs><use href="#b" fill="#fb7333" stroke="#fb7333" stroke-width="2.3" stroke-linejoin="round"/><use href="#b" fill="#ffc600" stroke="#ffc600" stroke-width="0.3" stroke-linejoin="round" filter="url(#e)"/></svg>
