<svg xmlns="http://www.w3.org/2000/svg" viewBox="0 0 21 18" shape-rendering="crispEdges">
  <rect x="6" y="0" width="9" height="1" fill="#FFFFFF"/>
  <rect x="5" y="1" width="1" height="1" fill="#FFFFFF"/>
  <rect x="6" y="1" width="6" height="1" fill="#2A88BF"/>
  <rect x="12" y="1" width="1" height="1" fill="#419AC8"/>
  <rect x="13" y="1" width="1" height="1" fill="#51A6CF"/>
  <rect x="14" y="1" width="1" height="1" fill="#2A88BF"/>
  <rect x="15" y="1" width="1" height="1" fill="#FFFFFF"/>
  <rect x="4" y="2" width="1" height="1" fill="#FFFFFF"/>
  <rect x="5" y="2" width="1" height="1" fill="#3B6FAD"/>
  <rect x="6" y="2" width="1" height="1" fill="#C4FFFF"/>
  <rect x="7" y="2" width="1" height="1" fill="#92CDE5"/>
  <rect x="8" y="2" width="1" height="1" fill="#528EC4"/>
  <rect x="9" y="2" width="1" height="1" fill="#5B9ACE"/>
  <rect x="10" y="2" width="1" height="1" fill="#68ABDC"/>
  <rect x="11" y="2" width="1" height="1" fill="#7EC1E7"/>
  <rect x="12" y="2" width="1" height="1" fill="#9BDEF6"/>
  <rect x="13" y="2" width="1" height="1" fill="#ADECFA"/>
  <rect x="14" y="2" width="1" height="1" fill="#C4FFFF"/>
  <rect x="15" y="2" width="1" height="1" fill="#3B6FAD"/>
  <rect x="16" y="2" width="1" height="1" fill="#FFFFFF"/>
  <rect x="4" y="3" width="2" height="1" fill="#FFFFFF"/>
  <rect x="6" y="3" width="1" height="1" fill="#2B87BE"/>
  <rect x="7" y="3" width="7" height="1" fill="#3B6FAD"/>
  <rect x="14" y="3" width="1" height="1" fill="#2C86BD"/>
  <rect x="15" y="3" width="2" height="1" fill="#FFFFFF"/>
  <rect x="3" y="4" width="1" height="1" fill="#FFFFFF"/>
  <rect x="4" y="4" width="1" height="1" fill="#90D5F4"/>
  <rect x="5" y="4" width="1" height="1" fill="#4B8AC1"/>
  <rect x="6" y="4" width="1" height="1" fill="#3073AF"/>
  <rect x="7" y="4" width="1" height="1" fill="#97DCEC"/>
  <rect x="8" y="4" width="1" height="1" fill="#57A8D0"/>
  <rect x="9" y="4" width="1" height="1" fill="#4C91C2"/>
  <rect x="10" y="4" width="1" height="1" fill="#488ABE"/>
  <rect x="11" y="4" width="1" height="1" fill="#7BC4EF"/>
  <rect x="12" y="4" width="1" height="1" fill="#9BF7FF"/>
  <rect x="13" y="4" width="1" height="1" fill="#C4FFFF"/>
  <rect x="14" y="4" width="1" height="1" fill="#276DA9"/>
  <rect x="15" y="4" width="1" height="1" fill="#68ABDC"/>
  <rect x="16" y="4" width="1" height="1" fill="#90D5F4"/>
  <rect x="17" y="4" width="1" height="1" fill="#FFFFFF"/>
  <rect x="2" y="5" width="1" height="1" fill="#FFFFFF"/>
  <rect x="3" y="5" width="1" height="1" fill="#7BC4EF"/>
  <rect x="4" y="5" width="2" height="1" fill="#FFFFFF"/>
  <rect x="6" y="5" width="1" height="1" fill="#2A88BF"/>
  <rect x="7" y="5" width="1" height="1" fill="#97DCEC"/>
  <rect x="8" y="5" width="1" height="1" fill="#59ACD3"/>
  <rect x="9" y="5" width="1" height="1" fill="#3A7BB1"/>
  <rect x="10" y="5" width="1" height="1" fill="#EEFFFF"/>
  <rect x="11" y="5" width="1" height="1" fill="#65ADDA"/>
  <rect x="12" y="5" width="1" height="1" fill="#9BF7FF"/>
  <rect x="13" y="5" width="1" height="1" fill="#C4FFFF"/>
  <rect x="14" y="5" width="1" height="1" fill="#2A88BF"/>
  <rect x="15" y="5" width="2" height="1" fill="#FFFFFF"/>
  <rect x="17" y="5" width="1" height="1" fill="#7BC4EF"/>
  <rect x="18" y="5" width="1" height="1" fill="#FFFFFF"/>
  <rect x="2" y="6" width="1" height="1" fill="#FFFFFF"/>
  <rect x="3" y="6" width="1" height="1" fill="#5B99CE"/>
  <rect x="4" y="6" width="2" height="1" fill="#FFFFFF"/>
  <rect x="6" y="6" width="1" height="1" fill="#2A88BF"/>
  <rect x="7" y="6" width="1" height="1" fill="#95DAEB"/>
  <rect x="8" y="6" width="1" height="1" fill="#4184B7"/>
  <rect x="9" y="6" width="1" height="1" fill="#C4FFFF"/>
  <rect x="10" y="6" width="1" height="1" fill="#FEFFFF"/>
  <rect x="11" y="6" width="1" height="1" fill="#EEFFFF"/>
  <rect x="12" y="6" width="1" height="1" fill="#77C8E3"/>
  <rect x="13" y="6" width="1" height="1" fill="#C4FFFF"/>
  <rect x="14" y="6" width="1" height="1" fill="#2A88BF"/>
  <rect x="15" y="6" width="2" height="1" fill="#FFFFFF"/>
  <rect x="17" y="6" width="1" height="1" fill="#5B99CE"/>
  <rect x="18" y="6" width="1" height="1" fill="#FFFFFF"/>
  <rect x="3" y="7" width="1" height="1" fill="#FFFFFF"/>
  <rect x="4" y="7" width="1" height="1" fill="#4E88C0"/>
  <rect x="5" y="7" width="1" height="1" fill="#FFFFFF"/>
  <rect x="6" y="7" width="1" height="1" fill="#2A88BF"/>
  <rect x="7" y="7" width="1" height="1" fill="#97DCEC"/>
  <rect x="8" y="7" width="1" height="1" fill="#59ACD3"/>
  <rect x="9" y="7" width="1" height="1" fill="#3A7BB1"/>
  <rect x="10" y="7" width="1" height="1" fill="#C4FFFF"/>
  <rect x="11" y="7" width="1" height="1" fill="#65ADDA"/>
  <rect x="12" y="7" width="1" height="1" fill="#82D5EE"/>
  <rect x="13" y="7" width="1" height="1" fill="#C4FFFF"/>
  <rect x="14" y="7" width="1" height="1" fill="#2A88BF"/>
  <rect x="15" y="7" width="1" height="1" fill="#FFFFFF"/>
  <rect x="16" y="7" width="1" height="1" fill="#4E88C0"/>
  <rect x="17" y="7" width="1" height="1" fill="#FFFFFF"/>
  <rect x="4" y="8" width="1" height="1" fill="#FFFFFF"/>
  <rect x="5" y="8" width="1" height="1" fill="#25619E"/>
  <rect x="6" y="8" width="1" height="1" fill="#2A88BF"/>
  <rect x="7" y="8" width="1" height="1" fill="#97DCEC"/>
  <rect x="8" y="8" width="1" height="1" fill="#57A8D0"/>
  <rect x="9" y="8" width="1" height="1" fill="#4C91C2"/>
  <rect x="10" y="8" width="1" height="1" fill="#488ABE"/>
  <rect x="11" y="8" width="1" height="1" fill="#7BC4EF"/>
  <rect x="12" y="8" width="1" height="1" fill="#9BF7FF"/>
  <rect x="13" y="8" width="1" height="1" fill="#C4FFFF"/>
  <rect x="14" y="8" width="1" height="1" fill="#2A88BF"/>
  <rect x="15" y="8" width="1" height="1" fill="#25619E"/>
  <rect x="16" y="8" width="1" height="1" fill="#FFFFFF"/>
  <rect x="5" y="9" width="1" height="1" fill="#FFFFFF"/>
  <rect x="6" y="9" width="1" height="1" fill="#2A88BF"/>
  <rect x="7" y="9" width="1" height="1" fill="#97DCEC"/>
  <rect x="8" y="9" width="1" height="1" fill="#57A8D0"/>
  <rect x="9" y="9" width="1" height="1" fill="#4C91C2"/>
  <rect x="10" y="9" width="2" height="1" fill="#7BC4EF"/>
  <rect x="12" y="9" width="1" height="1" fill="#9BF7FF"/>
  <rect x="13" y="9" width="1" height="1" fill="#C4FFFF"/>
  <rect x="14" y="9" width="1" height="1" fill="#2A88BF"/>
  <rect x="15" y="9" width="1" height="1" fill="#FFFFFF"/>
  <rect x="5" y="10" width="1" height="1" fill="#FFFFFF"/>
  <rect x="6" y="10" width="1" height="1" fill="#2A88BF"/>
  <rect x="7" y="10" width="1" height="1" fill="#84C5DF"/>
  <rect x="8" y="10" width="1" height="1" fill="#4D92C4"/>
  <rect x="9" y="10" width="1" height="1" fill="#4583BA"/>
  <rect x="10" y="10" width="2" height="1" fill="#5B9ACE"/>
  <rect x="12" y="10" width="1" height="1" fill="#7FD0E7"/>
  <rect x="13" y="10" width="1" height="1" fill="#A8E1EE"/>
  <rect x="14" y="10" width="1" height="1" fill="#2A88BF"/>
  <rect x="15" y="10" width="1" height="1" fill="#FFFFFF"/>
  <rect x="6" y="11" width="1" height="1" fill="#FFFFFF"/>
  <rect x="7" y="11" width="1" height="1" fill="#2A88BF"/>
  <rect x="8" y="11" width="1" height="1" fill="#317DB7"/>
  <rect x="9" y="11" width="1" height="1" fill="#3971AF"/>
  <rect x="10" y="11" width="1" height="1" fill="#3873B0"/>
  <rect x="11" y="11" width="1" height="1" fill="#3577B3"/>
  <rect x="12" y="11" width="1" height="1" fill="#317DB7"/>
  <rect x="13" y="11" width="1" height="1" fill="#2A88BF"/>
  <rect x="14" y="11" width="1" height="1" fill="#FFFFFF"/>
  <rect x="7" y="12" width="2" height="1" fill="#FFFFFF"/>
  <rect x="9" y="12" width="1" height="1" fill="#4C87BD"/>
  <rect x="10" y="12" width="1" height="1" fill="#3B6FAD"/>
  <rect x="11" y="12" width="1" height="1" fill="#4C87BD"/>
  <rect x="12" y="12" width="2" height="1" fill="#FFFFFF"/>
  <rect x="7" y="13" width="1" height="1" fill="#FFFFFF"/>
  <rect x="8" y="13" width="1" height="1" fill="#3C83B2"/>
  <rect x="9" y="13" width="1" height="1" fill="#7ABDE3"/>
  <rect x="10" y="13" width="2" height="1" fill="#61A4D4"/>
  <rect x="12" y="13" width="1" height="1" fill="#3C83B2"/>
  <rect x="13" y="13" width="1" height="1" fill="#FFFFFF"/>
  <rect x="7" y="14" width="2" height="1" fill="#FFFFFF"/>
  <rect x="9" y="14" width="1" height="1" fill="#4C87BD"/>
  <rect x="10" y="14" width="1" height="1" fill="#3B6FAD"/>
  <rect x="11" y="14" width="1" height="1" fill="#4C87BD"/>
  <rect x="12" y="14" width="2" height="1" fill="#FFFFFF"/>
  <rect x="5" y="15" width="2" height="1" fill="#FFFFFF"/>
  <rect x="7" y="15" width="1" height="1" fill="#72BCE0"/>
  <rect x="8" y="15" width="1" height="1" fill="#7ECDE9"/>
  <rect x="9" y="15" width="1" height="1" fill="#62A6D1"/>
  <rect x="10" y="15" width="1" height="1" fill="#4A84BD"/>
  <rect x="11" y="15" width="1" height="1" fill="#5695C9"/>
  <rect x="12" y="15" width="1" height="1" fill="#7ECDE9"/>
  <rect x="13" y="15" width="1" height="1" fill="#61A4D4"/>
  <rect x="14" y="15" width="2" height="1" fill="#FFFFFF"/>
  <rect x="4" y="16" width="1" height="1" fill="#FFFFFF"/>
  <rect x="5" y="16" width="1" height="1" fill="#4780B8"/>
  <rect x="6" y="16" width="2" height="1" fill="#5796C5"/>
  <rect x="8" y="16" width="1" height="1" fill="#4F8BBE"/>
  <rect x="9" y="16" width="3" height="1" fill="#3B6FAD"/>
  <rect x="12" y="16" width="1" height="1" fill="#5796C5"/>
  <rect x="13" y="16" width="1" height="1" fill="#6AB1D5"/>
  <rect x="14" y="16" width="1" height="1" fill="#5796C5"/>
  <rect x="15" y="16" width="1" height="1" fill="#4780B8"/>
  <rect x="16" y="16" width="1" height="1" fill="#FFFFFF"/>
  <rect x="5" y="17" width="11" height="1" fill="#FFFFFF"/>
</svg>
