<svg xmlns="http://www.w3.org/2000/svg" viewBox="0 0 27.41 32" width="27.41" height="32">
<defs>
<path id="g" d="M606 302q0 -309 -283 -309q-287 0 -287 309v309q0 46 29 71t68 25q40 0 68.5 -25t28.5 -71v-339q0 -86 91 -86t91 86v339q0 23 8 41t21 30t30.5 18.5t36.5 6.5q40 0 69 -25t29 -71v-309z"/>
<clipPath id="c"><use href="#g"/></clipPath>
<linearGradient id="f" gradientUnits="userSpaceOnUse" x1="0" y1="704" x2="0" y2="0">
<stop offset="0" stop-color="#fff"/><stop offset=".21" stop-color="#fff"/><stop offset=".63" stop-color="#e3fbff"/>
<stop offset=".635" stop-color="#84e2f3"/><stop offset=".68" stop-color="#79e0f3"/><stop offset="1" stop-color="#c1f4fe"/>
</linearGradient>
<filter id="h" x="-.5" y="-.5" width="2" height="2"><feGaussianBlur stdDeviation="16.37"/></filter>
</defs>
<g transform="translate(3.9 26.5) scale(0.03054 -0.03054)" stroke-linejoin="round">
<use href="#g" fill="#fff" stroke="#fff" stroke-width="343.81" filter="url(#h)"/>
<use href="#g" fill="#1f6776" stroke="#1f6776" stroke-width="157.17"/>
<use href="#g" fill="#5babbb" stroke="#5babbb" stroke-width="65.49"/>
<use href="#g" fill="url(#f)"/>
<use href="#g" fill="none" stroke="#cef5fe" stroke-width="65.49" clip-path="url(#c)"/>
</g>
</svg>
