<svg xmlns="http://www.w3.org/2000/svg" viewBox="0 0 10.81 15" width="10.81" height="15"><defs><path id="b" d="M1.52 7.15Q1.52 4.93 2.61 3.4Q3.69 1.87 5.51 1.87Q9.29 1.87 9.29 7.39Q9.29 9.97 8.27 11.51Q7.25 13.05 5.4 13.05Q3.42 13.05 2.47 11.63Q1.52 10.21 1.52 7.15ZM3.52 7.28Q3.52 9.45 3.94 10.47Q4.37 11.49 5.34 11.49Q6.4 11.49 6.85 10.57Q7.29 9.65 7.29 7.29Q7.29 5.09 6.86 4.26Q6.44 3.42 5.47 3.42Q3.52 3.42 3.52 7.28Z"/><filter id="e" x="-.2" y="-.2" width="1.4" height="1.4" color-interpolation-filters="sRGB"><feGaussianBlur in="SourceAlpha" stdDeviation="1.1" result="h"/><feOffset in="h" dx="0" dy="1.5" result="d"/><feComposite in="h" in2="d" operator="arithmetic" k2="4" k3="-4"/><feComponentTransfer result="l"><feFuncA type="gamma" exponent="1.5"/></feComponentTransfer><feComposite in="d" in2="h" operator="arithmetic" k2="2" k3="-2" result="s"/><feFlood flood-color="#d4d4d4"/><feComposite in2="l" operator="in" result="lc"/><feFlood flood-color="#f40b58"/><feComposite in2="s" operator="in" result="sc"/><feComposite in="SourceGraphic" in2="lc" operator="arithmetic" k2="1" k3="1"/><feComposite in="sc" operator="over"/><feComposite in2="SourceAlpha" operator="in"/></filter></defs><use href="#b" fill="#f84d85" stroke="#f84d85" stroke-width="2.05" stroke-linejoin="round"/><use href="#b" fill="#ffb5ce" stroke="#ffb5ce" stroke-width="0.55" stroke-linejoin="round" filter="url(#e)"/></svg>
